<mxfile host="app.diagrams.net" modified="2024-02-02T18:43:21.558Z" agent="Mozilla/5.0 (Windows NT 10.0; Win64; x64) AppleWebKit/537.36 (KHTML, like Gecko) Chrome/121.0.0.0 Safari/537.36" etag="bLjYWloHV5R4vlDEZngs" version="23.1.1" type="device">
  <diagram name="Page-1" id="OwgOKVjasO8mrFiFUuZs">
    <mxGraphModel dx="1126" dy="614" grid="1" gridSize="10" guides="1" tooltips="1" connect="1" arrows="1" fold="1" page="1" pageScale="1" pageWidth="850" pageHeight="1100" math="0" shadow="0">
      <root>
        <mxCell id="0" />
        <mxCell id="1" parent="0" />
        <mxCell id="rAPVMXFzXHox8kaVjvSC-9" value="Rancher server" style="rounded=0;whiteSpace=wrap;html=1;" parent="1" vertex="1">
          <mxGeometry x="660" y="736" width="160" height="80" as="geometry" />
        </mxCell>
        <mxCell id="rAPVMXFzXHox8kaVjvSC-10" value="ArgoCD" style="rounded=0;whiteSpace=wrap;html=1;" parent="1" vertex="1">
          <mxGeometry x="7.920000000000002" y="736" width="150" height="80" as="geometry" />
        </mxCell>
        <mxCell id="rAPVMXFzXHox8kaVjvSC-11" value="Git&amp;nbsp; &amp;nbsp; &amp;nbsp; &amp;nbsp; &amp;nbsp; &amp;nbsp; &amp;nbsp; &amp;nbsp;&amp;nbsp;&lt;br&gt;&amp;nbsp;Helm&amp;nbsp; &amp;nbsp; &amp;nbsp; &amp;nbsp; &amp;nbsp; &amp;nbsp; &amp;nbsp;&lt;br&gt;Terraform&amp;nbsp; &amp;nbsp; &amp;nbsp; &amp;nbsp;" style="rounded=0;whiteSpace=wrap;html=1;" parent="1" vertex="1">
          <mxGeometry x="10.419999999999987" y="960" width="145" height="80" as="geometry" />
        </mxCell>
        <mxCell id="rAPVMXFzXHox8kaVjvSC-16" value="" style="endArrow=none;dashed=1;html=1;dashPattern=1 3;strokeWidth=2;rounded=0;" parent="1" edge="1">
          <mxGeometry width="50" height="50" relative="1" as="geometry">
            <mxPoint x="10" y="500" as="sourcePoint" />
            <mxPoint x="850" y="500" as="targetPoint" />
          </mxGeometry>
        </mxCell>
        <mxCell id="rAPVMXFzXHox8kaVjvSC-22" value="N 1" style="text;html=1;align=center;verticalAlign=middle;resizable=0;points=[];autosize=1;strokeColor=none;fillColor=none;" parent="1" vertex="1">
          <mxGeometry x="50" y="358" width="40" height="30" as="geometry" />
        </mxCell>
        <mxCell id="rAPVMXFzXHox8kaVjvSC-23" value="N 2" style="text;html=1;align=center;verticalAlign=middle;resizable=0;points=[];autosize=1;strokeColor=none;fillColor=none;" parent="1" vertex="1">
          <mxGeometry x="117.92" y="360" width="40" height="30" as="geometry" />
        </mxCell>
        <mxCell id="rAPVMXFzXHox8kaVjvSC-24" value="N 3" style="text;html=1;align=center;verticalAlign=middle;resizable=0;points=[];autosize=1;strokeColor=none;fillColor=none;" parent="1" vertex="1">
          <mxGeometry x="180" y="358" width="40" height="30" as="geometry" />
        </mxCell>
        <mxCell id="rAPVMXFzXHox8kaVjvSC-25" value="Digital Ocean Cloud" style="text;html=1;align=center;verticalAlign=middle;resizable=0;points=[];autosize=1;strokeColor=none;fillColor=none;" parent="1" vertex="1">
          <mxGeometry x="670" y="360" width="130" height="30" as="geometry" />
        </mxCell>
        <mxCell id="rAPVMXFzXHox8kaVjvSC-27" value="Remote DEVOPS" style="text;html=1;align=center;verticalAlign=middle;resizable=0;points=[];autosize=1;strokeColor=none;fillColor=none;" parent="1" vertex="1">
          <mxGeometry x="690" y="1030" width="120" height="30" as="geometry" />
        </mxCell>
        <mxCell id="rAPVMXFzXHox8kaVjvSC-28" value="" style="image;sketch=0;aspect=fixed;html=1;points=[];align=center;fontSize=12;image=img/lib/mscae/Kubernetes.svg;" parent="1" vertex="1">
          <mxGeometry x="50" y="400" width="50" height="48" as="geometry" />
        </mxCell>
        <mxCell id="rAPVMXFzXHox8kaVjvSC-29" value="" style="image;sketch=0;aspect=fixed;html=1;points=[];align=center;fontSize=12;image=img/lib/mscae/Kubernetes.svg;" parent="1" vertex="1">
          <mxGeometry x="112.92" y="400" width="50" height="48" as="geometry" />
        </mxCell>
        <mxCell id="rAPVMXFzXHox8kaVjvSC-30" value="" style="image;sketch=0;aspect=fixed;html=1;points=[];align=center;fontSize=12;image=img/lib/mscae/Kubernetes.svg;" parent="1" vertex="1">
          <mxGeometry x="175" y="400" width="50" height="48" as="geometry" />
        </mxCell>
        <mxCell id="rAPVMXFzXHox8kaVjvSC-31" value="K3s cluster" style="text;html=1;align=center;verticalAlign=middle;resizable=0;points=[];autosize=1;strokeColor=none;fillColor=none;" parent="1" vertex="1">
          <mxGeometry x="80" y="318" width="80" height="30" as="geometry" />
        </mxCell>
        <mxCell id="rAPVMXFzXHox8kaVjvSC-32" value="" style="sketch=0;pointerEvents=1;shadow=0;dashed=0;html=1;strokeColor=none;labelPosition=center;verticalLabelPosition=bottom;verticalAlign=top;align=center;fillColor=#515151;shape=mxgraph.mscae.system_center.admin_console" parent="1" vertex="1">
          <mxGeometry x="715" y="980" width="50" height="36" as="geometry" />
        </mxCell>
        <mxCell id="rAPVMXFzXHox8kaVjvSC-33" value="" style="image;sketch=0;aspect=fixed;html=1;points=[];align=center;fontSize=12;image=img/lib/mscae/VM_Linux.svg;" parent="1" vertex="1">
          <mxGeometry x="360" y="74" width="50" height="46" as="geometry" />
        </mxCell>
        <mxCell id="rAPVMXFzXHox8kaVjvSC-34" value="General tools purpose server" style="text;html=1;align=center;verticalAlign=middle;resizable=0;points=[];autosize=1;strokeColor=none;fillColor=none;" parent="1" vertex="1">
          <mxGeometry x="295" y="120" width="180" height="30" as="geometry" />
        </mxCell>
        <mxCell id="rAPVMXFzXHox8kaVjvSC-35" value="" style="endArrow=classic;startArrow=classic;html=1;rounded=0;exitX=0.5;exitY=1;exitDx=0;exitDy=0;entryX=0.5;entryY=0;entryDx=0;entryDy=0;" parent="1" source="rAPVMXFzXHox8kaVjvSC-10" target="rAPVMXFzXHox8kaVjvSC-11" edge="1">
          <mxGeometry width="50" height="50" relative="1" as="geometry">
            <mxPoint x="440" y="880" as="sourcePoint" />
            <mxPoint x="490" y="830" as="targetPoint" />
          </mxGeometry>
        </mxCell>
        <mxCell id="rAPVMXFzXHox8kaVjvSC-39" value="" style="image;sketch=0;aspect=fixed;html=1;points=[];align=center;fontSize=12;image=img/lib/mscae/WebHosting.svg;" parent="1" vertex="1">
          <mxGeometry x="697.5" y="390" width="85" height="85" as="geometry" />
        </mxCell>
        <mxCell id="rAPVMXFzXHox8kaVjvSC-40" value="" style="endArrow=classic;startArrow=classic;html=1;rounded=0;entryX=0.438;entryY=1.035;entryDx=0;entryDy=0;entryPerimeter=0;exitX=0.5;exitY=0;exitDx=0;exitDy=0;" parent="1" source="rAPVMXFzXHox8kaVjvSC-9" target="rAPVMXFzXHox8kaVjvSC-39" edge="1">
          <mxGeometry width="50" height="50" relative="1" as="geometry">
            <mxPoint x="440" y="730" as="sourcePoint" />
            <mxPoint x="490" y="680" as="targetPoint" />
          </mxGeometry>
        </mxCell>
        <mxCell id="rAPVMXFzXHox8kaVjvSC-41" value="" style="endArrow=classic;startArrow=classic;html=1;rounded=0;exitX=0.5;exitY=0;exitDx=0;exitDy=0;exitPerimeter=0;entryX=0.5;entryY=1;entryDx=0;entryDy=0;" parent="1" source="rAPVMXFzXHox8kaVjvSC-32" target="rAPVMXFzXHox8kaVjvSC-9" edge="1">
          <mxGeometry width="50" height="50" relative="1" as="geometry">
            <mxPoint x="440" y="730" as="sourcePoint" />
            <mxPoint x="490" y="680" as="targetPoint" />
          </mxGeometry>
        </mxCell>
        <mxCell id="rAPVMXFzXHox8kaVjvSC-44" value="" style="endArrow=classic;startArrow=classic;html=1;rounded=0;entryX=0;entryY=0.5;entryDx=0;entryDy=0;entryPerimeter=0;exitX=1;exitY=0.5;exitDx=0;exitDy=0;" parent="1" source="rAPVMXFzXHox8kaVjvSC-11" target="rAPVMXFzXHox8kaVjvSC-32" edge="1">
          <mxGeometry width="50" height="50" relative="1" as="geometry">
            <mxPoint x="440" y="880" as="sourcePoint" />
            <mxPoint x="490" y="830" as="targetPoint" />
          </mxGeometry>
        </mxCell>
        <mxCell id="rAPVMXFzXHox8kaVjvSC-46" value="" style="edgeStyle=elbowEdgeStyle;elbow=horizontal;endArrow=classic;html=1;curved=0;rounded=0;endSize=8;startSize=8;exitX=0.032;exitY=0.244;exitDx=0;exitDy=0;exitPerimeter=0;entryX=1;entryY=0.5;entryDx=0;entryDy=0;" parent="1" source="rAPVMXFzXHox8kaVjvSC-32" target="rAPVMXFzXHox8kaVjvSC-10" edge="1">
          <mxGeometry width="50" height="50" relative="1" as="geometry">
            <mxPoint x="440" y="730" as="sourcePoint" />
            <mxPoint x="490" y="680" as="targetPoint" />
            <Array as="points">
              <mxPoint x="390" y="870" />
            </Array>
          </mxGeometry>
        </mxCell>
        <mxCell id="rAPVMXFzXHox8kaVjvSC-47" value="" style="edgeStyle=elbowEdgeStyle;elbow=vertical;endArrow=classic;html=1;curved=0;rounded=0;endSize=8;startSize=8;" parent="1" edge="1">
          <mxGeometry width="50" height="50" relative="1" as="geometry">
            <mxPoint x="20" y="730" as="sourcePoint" />
            <mxPoint x="140" y="460" as="targetPoint" />
          </mxGeometry>
        </mxCell>
        <mxCell id="rAPVMXFzXHox8kaVjvSC-48" value="" style="edgeStyle=elbowEdgeStyle;elbow=horizontal;endArrow=classic;html=1;curved=0;rounded=0;endSize=8;startSize=8;exitX=1.007;exitY=0.485;exitDx=0;exitDy=0;exitPerimeter=0;entryX=0.01;entryY=0.01;entryDx=0;entryDy=0;entryPerimeter=0;" parent="1" source="rAPVMXFzXHox8kaVjvSC-33" target="rAPVMXFzXHox8kaVjvSC-32" edge="1">
          <mxGeometry width="50" height="50" relative="1" as="geometry">
            <mxPoint x="440" y="440" as="sourcePoint" />
            <mxPoint x="550" y="680" as="targetPoint" />
            <Array as="points">
              <mxPoint x="500" y="580" />
            </Array>
          </mxGeometry>
        </mxCell>
        <UserObject label="139.59.144.130:8080" link="https://139.59.144.130:8080" id="dKUtIY8mFOcJVoFUgnIn-1">
          <mxCell style="text;whiteSpace=wrap;html=1;" vertex="1" parent="1">
            <mxGeometry x="170" y="10" width="150" height="20" as="geometry" />
          </mxCell>
        </UserObject>
        <mxCell id="dKUtIY8mFOcJVoFUgnIn-3" style="edgeStyle=orthogonalEdgeStyle;rounded=0;orthogonalLoop=1;jettySize=auto;html=1;exitX=0.801;exitY=0.832;exitDx=0;exitDy=0;entryX=0.295;entryY=0.018;entryDx=0;entryDy=0;entryPerimeter=0;exitPerimeter=0;" edge="1" parent="1" source="dKUtIY8mFOcJVoFUgnIn-1" target="rAPVMXFzXHox8kaVjvSC-33">
          <mxGeometry relative="1" as="geometry">
            <Array as="points">
              <mxPoint x="390" y="27" />
              <mxPoint x="390" y="75" />
            </Array>
          </mxGeometry>
        </mxCell>
        <UserObject label="139.59.144.130" link="ssh root@139.59.144.130" id="dKUtIY8mFOcJVoFUgnIn-4">
          <mxCell style="text;whiteSpace=wrap;html=1;" vertex="1" parent="1">
            <mxGeometry x="410" y="50" width="150" height="40" as="geometry" />
          </mxCell>
        </UserObject>
      </root>
    </mxGraphModel>
  </diagram>
</mxfile>
